<svg width="179" height="184" viewBox="0 0 179 184" fill="none" xmlns="http://www.w3.org/2000/svg">
<g filter="url(#filter0_d_2020_22)">
<path fill-rule="evenodd" clip-rule="evenodd" d="M117.232 115.627C117.467 115.565 117.635 115.521 117.803 115.521V115.53L118.925 115.526C121.926 115.513 124.93 115.5 127.93 115.517C128.201 115.517 128.474 115.61 128.747 115.702C128.876 115.746 129.005 115.79 129.133 115.824C129.081 115.953 129.04 116.092 128.999 116.232C128.908 116.541 128.816 116.851 128.614 117.041L128.575 117.077C127.766 117.828 126.932 118.6 125.974 119.111C124.923 119.666 124.588 120.483 124.304 121.53C122.559 127.984 118.804 132.827 112.648 135.627C104.753 139.222 94.5758 136.701 90.146 131.588C90.0734 131.503 89.9848 131.434 89.8829 131.355C89.8302 131.314 89.774 131.271 89.7145 131.221C89.665 131.247 89.6145 131.27 89.5651 131.292C89.4586 131.341 89.3568 131.387 89.2785 131.459C79.0418 141.062 63.7418 138.744 56.9709 126.497C56.3585 125.388 55.9283 124.182 55.4974 122.974C55.2305 122.225 54.9634 121.476 54.6527 120.75C54.4278 120.231 53.9917 119.758 53.5464 119.386C53.0203 118.946 52.4729 118.532 51.9256 118.117C51.3079 117.65 50.6901 117.182 50.1036 116.678C49.4885 116.15 49.7134 115.558 50.4892 115.549C53.3529 115.511 56.2192 115.517 59.0843 115.522H59.0856C60.0961 115.524 61.1068 115.526 62.1168 115.526C62.1552 115.6 62.1919 115.676 62.229 115.752C62.2539 115.803 62.2792 115.855 62.305 115.907C62.0772 116.085 61.8546 116.272 61.6322 116.458C61.1377 116.874 60.6432 117.289 60.0924 117.605C59.0458 118.207 58.9861 118.955 59.2937 120.001C60.9554 125.68 66.6751 130.068 72.6014 130.289C77.7059 130.481 81.6904 128.558 84.486 124.275C84.9038 123.632 85.1838 122.88 85.3949 122.141C86.0606 119.795 84.9588 117.917 82.5948 117.293C82.0944 117.165 81.5757 117.087 81.0616 117.045C76.3563 116.683 73.1614 112.501 74.1529 107.873C74.9746 104.027 75.8698 100.198 76.7924 96.3744C77.4581 93.5972 78.624 92.7158 81.4655 92.7021C86.8317 92.6791 92.198 92.6653 97.5642 92.6653C100.475 92.6607 101.81 93.6569 102.471 96.4479C103.431 100.483 104.363 104.527 105.23 108.585C105.992 112.152 102.627 116.476 98.7944 116.999C98.6869 117.014 98.5789 117.028 98.4707 117.042C97.6779 117.144 96.8717 117.248 96.1366 117.523C93.9056 118.353 93.0518 120.194 93.9286 122.416C95.5903 126.616 98.7853 129.077 103.137 129.976C111.092 131.624 116.569 127.02 119.291 121.562C119.53 121.08 119.683 120.551 119.834 120.032L119.851 119.974C120.154 118.923 120.025 118.078 118.91 117.486C118.412 117.223 117.976 116.843 117.48 116.411C117.241 116.202 116.987 115.981 116.706 115.755C116.917 115.71 117.087 115.665 117.232 115.627ZM83.3578 106.235C84.0728 105.622 84.7884 105.008 85.574 104.903C85.8391 104.868 86.1051 104.831 86.3715 104.794C90.2795 104.253 94.2896 103.697 97.3622 107.346C97.5275 107.538 97.7478 107.772 97.9728 107.809C98.0719 107.826 98.1764 107.847 98.2832 107.869C98.7749 107.968 99.3177 108.077 99.6345 107.873C100.002 107.635 100.254 106.831 100.172 106.345C99.6207 103.118 98.0049 100.703 94.663 99.854C93.6655 99.5999 92.6487 99.4294 91.5364 99.2429C91.021 99.1565 90.4851 99.0666 89.9211 98.9634C89.4596 99.0401 88.9765 99.1152 88.4788 99.1925C87.3081 99.3743 86.0567 99.5687 84.8165 99.8264C81.9613 100.423 80.2077 102.255 79.386 105C79.3406 105.152 79.2867 105.309 79.232 105.469C78.927 106.357 78.596 107.32 79.5651 107.97C80.4805 108.586 81.1815 108 81.8614 107.432C82.0373 107.285 82.2118 107.139 82.3882 107.015C82.7155 106.786 83.0366 106.511 83.3578 106.235Z" fill="#001721"/>
<path fill-rule="evenodd" clip-rule="evenodd" d="M50.3422 83.2044C50.3514 88.1759 54.2717 92.1282 59.1789 92.1236C64.2697 92.1191 68.2266 88.2493 68.2358 83.2687C68.245 78.1687 64.1549 73.9593 59.2202 73.9822C54.2533 74.0052 50.3285 78.0815 50.3422 83.209V83.2044ZM60.6983 80.3859C60.6983 81.6712 59.6655 82.6949 58.4031 82.6536C57.1958 82.6168 56.2226 81.5932 56.2456 80.3767C56.2639 79.1373 57.2371 78.1871 58.4765 78.1962C59.7527 78.21 60.6983 79.1373 60.7029 80.3859H60.6983Z" fill="#001721"/>
<path fill-rule="evenodd" clip-rule="evenodd" d="M119.649 74.0695C124.685 74.0374 128.738 78.0999 128.779 83.2183H128.784C128.821 88.0061 124.882 92.0411 120.122 92.0916C114.925 92.1513 110.904 88.231 110.909 83.1127C110.913 78.0586 114.742 74.1016 119.649 74.0695ZM119.828 78.1183C118.616 78.0907 117.528 79.1787 117.528 80.4227C117.528 81.6024 118.538 82.6353 119.736 82.6858C120.948 82.7363 122.109 81.6575 122.132 80.4594C122.155 79.2796 121.04 78.1458 119.828 78.1183Z" fill="#001721"/>
<path d="M70.6733 71.1086C71.5087 71.7834 72.4131 72.4077 73.3725 72.8897C75.2316 73.8216 77.1642 72.9402 77.8344 70.9709C78.3485 69.4561 77.7701 68.2488 76.7235 67.2205C72.2524 62.8366 67.0468 60.1558 60.7579 60.3899C54.5424 60.2109 49.3598 62.3225 45.0081 66.509C44.2048 67.2848 43.4886 68.1615 42.8001 69.0429C42.644 69.2449 42.6256 69.7544 42.7725 69.9426C42.9057 70.1125 43.3693 70.0941 43.6585 70.0345C43.8974 69.9882 44.1201 69.845 44.3375 69.7051C44.3791 69.6783 44.4205 69.6517 44.4618 69.6259C50.7186 65.6689 62.236 64.3102 70.6779 71.1132L70.6733 71.1086Z" fill="#001721"/>
<path d="M118.074 60.3577C125.364 60.243 130.983 63.1533 135.619 68.212C135.646 68.2415 135.673 68.271 135.7 68.3007C135.911 68.5297 136.129 68.766 136.239 69.0382C136.344 69.3091 136.399 69.7681 136.248 69.9334C136.109 70.084 135.755 70.065 135.458 70.0491C135.421 70.0471 135.384 70.0451 135.348 70.0436C135.245 70.0375 135.148 69.967 135.05 69.8961C135 69.8599 134.949 69.8236 134.898 69.7957C125.772 64.6727 116.94 65.0537 108.416 71.2187C108.345 71.2701 108.273 71.3218 108.202 71.3734C107.468 71.9029 106.727 72.4385 105.928 72.8483C104.454 73.6057 102.903 73.2431 101.962 72.0358C100.984 70.7826 100.874 69.0015 101.943 67.8447C104.211 65.3843 106.736 63.1992 109.894 61.946C112.602 60.8718 115.426 60.2292 118.074 60.3577Z" fill="#001721"/>
<path fill-rule="evenodd" clip-rule="evenodd" d="M157.809 62.676C156.519 63.8833 156.786 64.9161 157.502 66.2933L157.511 66.2979C164.355 79.4908 167.215 93.5513 166.026 108.337C164.094 132.387 153.457 151.598 133.65 165.608C124.248 172.255 113.966 176.762 102.632 178.801C86.0376 181.789 70.274 179.117 55.254 171.635C40.583 164.322 29.4006 153.388 21.6749 138.965C17.112 130.445 14.4358 121.291 13.4672 111.684C12.4022 101.126 13.1183 90.6823 16.0241 80.4319C17.493 75.2584 19.3889 70.2502 22.0146 65.545C22.492 64.6912 22.4874 64.1449 21.8769 63.3875C16.2031 56.3595 15.1014 48.3171 16.8917 39.7375C18.6131 31.4885 24.2639 26.5859 32.692 25.5852C39.6052 24.7635 45.7931 26.5354 51.4807 30.3914C51.8795 30.662 52.2782 30.9343 52.6956 31.2194L52.6973 31.2205C52.952 31.3945 53.2138 31.5733 53.4867 31.7593C60.5101 27.2423 68.245 24.8369 76.2783 23.345C93.4099 20.1639 109.674 22.5555 124.873 31.2682C125.662 31.718 126.108 31.4885 126.691 31.0295C131.713 27.0541 137.506 25.3327 143.84 25.3648C154.256 25.4199 161.509 31.9613 162.749 42.3082C163.492 48.4823 162.753 54.3902 159.682 59.8896C159.612 60.0158 159.541 60.1434 159.471 60.2716C158.995 61.1369 158.505 62.0283 157.809 62.676ZM149.607 84.0213C151.219 85.5901 152.827 87.1547 154.426 88.7084V88.713C154.408 88.7681 154.472 88.6901 154.458 88.6258C154.403 88.332 154.33 88.0382 154.256 87.7444C152.053 79.1832 148.532 71.1729 144.07 63.562C132.998 44.6677 116.224 34.8992 94.6998 32.861C85.2021 31.9613 75.9478 33.4394 66.9918 36.5518C59.5369 39.1408 52.6237 42.8085 46.9132 48.3813C36.9382 58.1223 30.5161 70.0161 26.1368 83.1127C25.7377 84.3131 25.4073 85.5338 25.0504 86.8526C24.8696 87.5207 24.6819 88.2141 24.4751 88.9425C25.3631 88.0793 26.2026 87.2035 27.0282 86.3421C29.2628 84.0107 31.3953 81.7857 34.1104 80.2069C34.037 80.6981 33.8626 81.0791 33.6468 81.4417C28.0419 90.7925 25.2738 100.919 25.2463 111.812C25.2371 116.531 25.8201 121.135 27.7435 125.492C27.9881 126.047 28.3161 126.568 28.6441 127.089C28.7901 127.32 28.9361 127.552 29.0747 127.787C29.1457 127.764 29.2155 127.741 29.2854 127.718C29.3554 127.695 29.4258 127.672 29.497 127.649C29.6302 121.907 31.3837 116.623 33.8167 111.229C33.9179 111.856 34.0032 112.449 34.085 113.018C34.2519 114.178 34.4042 115.238 34.6475 116.279C36.1761 122.815 39.2426 128.677 42.9562 134.186C51.6781 147.113 62.9568 157.303 76.5032 164.974C78.9243 166.346 81.4156 167.594 83.9871 168.882L83.9881 168.883L83.9894 168.883C85.1958 169.488 86.4198 170.101 87.6626 170.74C87.631 170.517 87.6075 170.336 87.5878 170.184C87.5501 169.894 87.5257 169.707 87.4836 169.523C86.9928 167.35 86.4994 165.178 86.0059 163.006C84.8053 157.721 83.6047 152.437 82.4433 147.14C82.177 145.928 81.7731 144.992 80.6622 144.34C80.2314 144.086 79.8613 143.727 79.446 143.325C79.2461 143.131 79.0357 142.927 78.803 142.72C78.9954 142.648 79.1359 142.594 79.2447 142.553C79.4164 142.487 79.5091 142.451 79.6018 142.426C80.1588 142.268 80.7158 142.11 81.2729 141.951L81.3054 141.942C83.9283 141.197 86.5528 140.451 89.1866 139.745C89.5498 139.646 89.9908 139.77 90.3931 139.882C90.4382 139.895 90.483 139.907 90.527 139.919C92.5451 140.471 94.5608 141.035 96.5758 141.599L96.5853 141.602C97.3493 141.815 98.1132 142.029 98.8771 142.242C99.2621 142.35 99.6471 142.454 100.268 142.621L100.479 142.678C100.159 142.928 99.8613 143.155 99.5815 143.368L99.5805 143.369C98.9458 143.852 98.4024 144.266 97.8993 144.721C97.5413 145.042 97.1878 145.497 97.0822 145.947C95.9121 150.984 94.7652 156.025 93.6184 161.066L93.618 161.068L93.6167 161.074L93.6143 161.084L93.6132 161.089C93.1511 163.12 92.6891 165.151 92.2255 167.182C92.0673 167.885 91.8971 168.583 91.704 169.375C91.6058 169.779 91.5016 170.206 91.3901 170.671C92.221 170.264 93.0217 169.885 93.7982 169.516C95.4409 168.737 96.9757 168.01 98.4593 167.187C98.7482 167.026 99.0373 166.866 99.3264 166.706C102.589 164.898 105.86 163.085 108.971 161.04C120.057 153.76 129.472 144.744 136.675 133.539C140.292 127.906 143.276 121.971 144.648 115.351C144.834 114.457 144.947 113.548 145.072 112.535L145.072 112.533L145.073 112.527C145.134 112.04 145.197 111.53 145.273 110.986C147.843 116.508 149.221 122.008 150.015 127.755C150.391 127.456 150.648 127.149 150.827 126.8C153.168 122.306 153.765 117.412 153.884 112.464C154.137 102.154 151.493 92.5277 146.751 83.4294C146.422 82.797 146.089 82.1664 145.756 81.5354C145.555 81.1541 145.354 80.7726 145.153 80.3905C145.277 80.2809 145.405 80.1713 145.532 80.0617L145.534 80.06C146.893 81.3808 148.251 82.7026 149.607 84.0213Z" fill="#001721"/>
</g>
<defs>
<filter id="filter0_d_2020_22" x="0.5" y="0.5" width="178.288" height="183" filterUnits="userSpaceOnUse" color-interpolation-filters="sRGB">
<feFlood flood-opacity="0" result="BackgroundImageFix"/>
<feColorMatrix in="SourceAlpha" type="matrix" values="0 0 0 0 0 0 0 0 0 0 0 0 0 0 0 0 0 0 127 0" result="hardAlpha"/>
<feOffset dy="-9"/>
<feGaussianBlur stdDeviation="6.25"/>
<feComposite in2="hardAlpha" operator="out"/>
<feColorMatrix type="matrix" values="0 0 0 0 0 0 0 0 0 0 0 0 0 0 0 0 0 0 0.5 0"/>
<feBlend mode="normal" in2="BackgroundImageFix" result="effect1_dropShadow_2020_22"/>
<feBlend mode="normal" in="SourceGraphic" in2="effect1_dropShadow_2020_22" result="shape"/>
</filter>
</defs>
</svg>
